# xmcd
#
# Track frame offsets: 
#        150
#        15971
#        34971
#        53352
#        68879
#        84795
#        100663
#        114809
#        126158
#        137556
#        164147
#        190332
#        204986
#
# Disc length: 3010 seconds
#
# Revision: 1
# Processed by: cddbd v1.5.2PL0 Copyright (c) Steve Scherf et al.
# Submitted via: ExactAudioCopy v1.0b1
#
DISCID=9e0bc00d
DTITLE=Geater Davis - The Lost Soul Man CD1
DYEAR=2005
DGENRE=Soul
TTITLE0=Ain't Worrying About Jody (Part 1)
TTITLE1=Sad Shade Of Blue
TTITLE2=Don't Walk Off (And Leave Me)
TTITLE3=Whole Lot Of Man
TTITLE4=Don't Want To Lose You
TTITLE5=I'll Meet You
TTITLE6=I Know My Baby Loves Me
TTITLE7=Heavy On My Mind (Part 1)
TTITLE8=Heavy On My Mind (Part 2)
TTITLE9=Hot Buttered Love (version 1)
TTITLE10=Hot Buttered Love (version 2)
TTITLE11=Chained And Bound
TTITLE12=Ain't Worrying About Jody (Part 2)
EXTD=
EXTT0=
EXTT1=
EXTT2=
EXTT3=
EXTT4=
EXTT5=
EXTT6=
EXTT7=
EXTT8=
EXTT9=
EXTT10=
EXTT11=
EXTT12=
PLAYORDER=
